<svg xmlns="http://www.w3.org/2000/svg" height="40" viewBox="0 -960 960 960" width="40"><path fill="white" d="M488.333-98.667q-156.505 0-267.419-106.667Q110-312.001 107-467.334h85.999Q195.333-347 280.73-264.833q85.398 82.167 206.27 82.167 124.109 0 211.055-87.918Q785-358.502 785-482.833 785-606 697.918-691.667t-209.585-85.667q-73.079 0-136.873 34-63.793 34-105.793 92H359v83.999H106.334v-251.998h84V-716q52.333-70 131.133-107.666 78.799-37.667 166.866-37.667 78.892 0 148.124 30.1t120.504 81.358q51.272 51.258 81.655 120.535Q869-560.063 869-481.198t-30.384 148.673q-30.383 69.809-81.655 121.734-51.272 51.924-120.504 82.024t-148.124 30.1ZM595-302 431-463.044v-229.623h84v194l139.333 137.334L595-302Z"/></svg>