<svg xmlns="http://www.w3.org/2000/svg" height="40" viewBox="0 -960 960 960" width="40"><path  fill="white" d="m618-280.667 60.667-60.666L524.666-497.63v-193.704h-83.999v228.667l177.333 182Zm-137.816 222q-86.491 0-163.664-33.353-77.173-33.354-134.16-90.34-56.986-56.987-90.34-134.16-33.353-77.173-33.353-163.664 0-86.746 33.412-163.628 33.413-76.881 90.5-134.034 57.088-57.154 134.159-90.32 77.071-33.167 163.446-33.167 86.737 0 163.61 33.167Q720.666-835 777.833-777.833 835-720.666 868.166-643.767q33.167 76.9 33.167 163.667t-33.167 163.6Q835-239.667 777.846-182.579q-57.153 57.087-134.034 90.5-76.882 33.412-163.628 33.412Z"/></svg>