<svg xmlns="http://www.w3.org/2000/svg" height="40" viewBox="0 -960 960 960" width="40"><path fill="white" d="m835.333-581.333-255-254.333L606-861.667q25.667-25.666 63-25.333 37.333.333 63 26l129 129q25.667 25.667 25.667 62.667T861-606.667l-25.667 25.334ZM354-99.667q-25.667 26.334-62.667 26.334t-62.666-26.334L97-231.667Q71.667-257 71.667-291.333T97-351l28.334-28.333 253.999 253.999L354-99.667Zm144-16.999q-15.333 15.333-36.333 15.333T426-116.666L116.666-426q-15.333-14.667-15.333-35.667T116.666-498l81.001-80q15.333-14.667 35.5-14.667 20.166 0 35.499 14.667L330-516.667l118-119L386.666-696q-15.333-14.667-15.333-35.667 0-20.999 15.333-36.333l76.001-76q14.666-14.667 35.666-14.667 21 0 36.333 14.667L844-534.666q14.667 15.333 14.667 36.333T844-462.667l-76 76.001q-15.334 15.333-36.333 15.333-21 0-35.667-15.333L635.667-448l-119 118L578-268.666q14.667 15.333 14.667 35.499 0 20.167-14.667 35.5l-80 81.001Z"/></svg>