<svg xmlns="http://www.w3.org/2000/svg" height="40" viewBox="0 -960 960 960" width="40"><path fill="white" d="M480.667-43q-87.333-9.334-163.5-46.5-76.166-37.167-133.333-99.334-57.167-62.166-92-147.333Q57-421.334 52.334-527.334q109.999 5.333 190.499 35.5T376-403.001q52.667 58.667 78.667 148 26 89.334 26 212ZM479-402.334q-37-53.333-73.5-86-36.5-32.666-89.833-60.333 6-45.334 20.5-93.667t36-95.333q21.5-47 48.666-90.667Q448-872 479-907.333q30.333 34.667 57.833 78.167T586.166-738q21.834 47.667 36.667 96.834 14.833 49.166 20.833 95.833-52 19.333-92.999 56.5-41 37.167-71.667 86.5Zm87 344q-2.334-65.001-11.834-131.334t-27.5-129.666q52.667-96 156.667-153.334t224-56Q893.666-341.334 805-221.334q-88.667 120-239 163Z"/></svg>